<svg id="Calque_1" data-name="Calque 1" xmlns="http://www.w3.org/2000/svg" xmlns:xlink="http://www.w3.org/1999/xlink" viewBox="0 0 634.66 87.14"><defs><style>.cls-1{fill:url(#Dégradé_sans_nom_14);}.cls-2{fill:url(#Dégradé_sans_nom_9);}.cls-3{fill:url(#Dégradé_sans_nom_9-2);}.cls-4{fill:url(#Dégradé_sans_nom_9-3);}</style><linearGradient id="Dégradé_sans_nom_14" x1="6998.98" y1="7202.37" x2="7511.53" y2="7202.37" gradientUnits="userSpaceOnUse"><stop offset="0" stop-color="#26707c"/><stop offset="0.3" stop-color="#33a3ab"/><stop offset="0.45" stop-color="#38b7bd"/></linearGradient><linearGradient id="Dégradé_sans_nom_9" y1="45.43" x2="76.8" y2="45.43" gradientUnits="userSpaceOnUse"><stop offset="0" stop-color="#26707c"/><stop offset="0.3" stop-color="#33a3ab"/><stop offset="0.46" stop-color="#38b7bd"/></linearGradient><linearGradient id="Dégradé_sans_nom_9-2" x1="9.87" y1="70.29" x2="77.27" y2="70.29" xlink:href="#Dégradé_sans_nom_9"/><linearGradient id="Dégradé_sans_nom_9-3" x1="6.34" y1="18.71" x2="95.14" y2="18.71" xlink:href="#Dégradé_sans_nom_9"/></defs><title>recovery-logo</title><path class="cls-1" d="M7039.36,7235.63l-14.25-21.28h-11.5v21.28H6999v-66.51h30.4q11.88,0,18.48,5.79t6.61,16.16v.19q0,8.07-3.94,13.16a22.92,22.92,0,0,1-10.31,7.46l16.24,23.75Zm.29-43.8c0-3.17-1-5.55-3-7.13s-4.85-2.38-8.46-2.38h-14.54v19.11h14.82q5.41,0,8.32-2.57a8.69,8.69,0,0,0,2.9-6.84Zm23.28,43.8v-66.51H7113v13h-35.63v13.5h31.36v13h-31.36v14h36.11v13Zm112-5.79a31.82,31.82,0,0,1-6,3.75,31.11,31.11,0,0,1-7.17,2.37,43.11,43.11,0,0,1-8.74.81,34.49,34.49,0,0,1-13.59-2.66,32.82,32.82,0,0,1-18-18.15,35.06,35.06,0,0,1-2.57-13.4v-.18a34.71,34.71,0,0,1,2.57-13.36,34.34,34.34,0,0,1,7.13-10.92,33.07,33.07,0,0,1,10.92-7.42,35.72,35.72,0,0,1,14.07-2.7,43.68,43.68,0,0,1,8.5.76,34.66,34.66,0,0,1,7,2.09,29.68,29.68,0,0,1,5.8,3.23,39,39,0,0,1,4.94,4.18l-9.31,10.74a35.08,35.08,0,0,0-7.93-5.51,20.12,20.12,0,0,0-9.08-2,18.44,18.44,0,0,0-7.74,1.62,18.18,18.18,0,0,0-6.13,4.46,20.75,20.75,0,0,0-4,6.61,22.39,22.39,0,0,0-1.43,8v.19a22.81,22.81,0,0,0,1.43,8.07,21,21,0,0,0,3.94,6.65,18.49,18.49,0,0,0,6.08,4.52,18.3,18.3,0,0,0,7.84,1.66,20.45,20.45,0,0,0,9.65-2.09,37.56,37.56,0,0,0,7.83-5.7l9.32,9.4A48.12,48.12,0,0,1,7175,7229.84Zm77.36-14.12a34,34,0,0,1-18.58,18.34,38.48,38.48,0,0,1-28.37,0,35.14,35.14,0,0,1-11.16-7.31,32.55,32.55,0,0,1-7.32-10.84,34.14,34.14,0,0,1-2.61-13.35v-.18a33.69,33.69,0,0,1,2.66-13.36,34.13,34.13,0,0,1,18.58-18.34,38.59,38.59,0,0,1,28.36,0A35.22,35.22,0,0,1,7245,7178a32.71,32.71,0,0,1,7.32,10.83,34.19,34.19,0,0,1,2.62,13.36v.19A33.62,33.62,0,0,1,7252.31,7215.72Zm-12.64-13.34a22,22,0,0,0-1.48-8.08,20,20,0,0,0-10.59-11.17,19.5,19.5,0,0,0-8.08-1.66,19.82,19.82,0,0,0-8.12,1.62,18.44,18.44,0,0,0-6.27,4.46,20.82,20.82,0,0,0-4.09,6.61,21.78,21.78,0,0,0-1.47,8v.19a22.18,22.18,0,0,0,1.47,8.07,20.06,20.06,0,0,0,4.18,6.65,20.35,20.35,0,0,0,6.37,4.52,19.36,19.36,0,0,0,8.12,1.66,20,20,0,0,0,8.08-1.62,18.35,18.35,0,0,0,6.32-4.46,21,21,0,0,0,4.08-6.61,21.62,21.62,0,0,0,1.48-8Zm57.67,33.73h-12.92l-26.89-67h16.15l17.39,46.84,17.39-46.84h15.78Zm32.41-.48v-66.51h50.07v13h-35.63v13.5h31.36v13h-31.36v14h36.11v13Zm99.3,0-14.26-21.28H7403.3v21.28h-14.64v-66.51h30.41q11.88,0,18.48,5.79t6.6,16.16v.19q0,8.07-3.94,13.16a22.92,22.92,0,0,1-10.31,7.46l16.25,23.75Zm.28-43.8q0-4.76-3-7.13c-2-1.58-4.85-2.38-8.46-2.38H7403.3v19.11h14.82q5.41,0,8.31-2.57a8.66,8.66,0,0,0,2.9-6.84Zm56.63,17.29v26.51h-14.63V7209.4l-25.56-40.28h17.1l15.87,26.7,16.16-26.7h16.63Z" transform="translate(-6876.87 -7158.15)"/><polygon class="cls-2" points="76.8 40.18 3.41 40.18 2.26 41.32 2.27 41.3 0 43.57 6.08 49.65 6.14 49.65 7.03 50.53 63.14 50.69 76.8 40.18"/><polygon class="cls-3" points="43.57 80.11 27.27 63.8 41.28 63.95 54.93 53.44 16.9 53.44 15.21 53.44 9.87 53.44 43.57 87.14 77.27 53.44 70.24 53.44 43.57 80.11"/><polygon class="cls-4" points="80.42 26.91 70.48 26.91 63.45 26.91 52.83 26.91 23.69 26.91 43.57 7.03 61.21 24.82 68.25 24.82 43.57 0 6.34 37.23 12.57 37.23 81.48 37.42 87.14 33.07 95.14 26.91 80.42 26.91"/></svg>